# xmcd CD database file
#
# Track frame offsets:
#	150
#	12866
#	27123
#	38866
#	53791
#	64221
#	72483
#	85646
#	95130
#	104171
#	114043
#	123436
#	135322
#
# Disc length: 1966 seconds
#
# Revision: 0
# Processed by: cddbd v1.4PL0 Copyright (c) Steve Scherf et al.
# Submitted via: Feurio! 1.66.2ß - http://www.feurio.com
#
DISCID=ab07ac0d
DTITLE=happy creatures - j
DYEAR=1900
DGENRE=
TTITLE0=Jibron
TTITLE1=Jimmy John
TTITLE2=The King
TTITLE3=Joe Nerd
TTITLE4=To Thee
TTITLE5=Bob Chambers
TTITLE6=Fish
TTITLE7=Hammer
TTITLE8=Jimmy Bill
TTITLE9=Zen Knight
TTITLE10=Reginald Recalled
TTITLE11=Eddys Moped
TTITLE12=Reggies Party
EXTD=
EXTT0=
EXTT1=
EXTT2=
EXTT3=
EXTT4=
EXTT5=
EXTT6=
EXTT7=
EXTT8=
EXTT9=
EXTT10=
EXTT11=
EXTT12=
PLAYORDER=
